# xmcd CD database file
# Copyright (C) 1995-1998 Ti Kan
#
# Track frame offsets:
#	150
#	18855
#	32757
#	47607
#	57382
#	67305
#	80087
#	99867
#	112747
#	129922
#	141672
#	152262
#
# Disc length: 2170 seconds
#
# Revision: 4
# Processed by: cddbd v1.4PL0 Copyright (c) Steve Scherf et al.
# Submitted via: CDex 1.30Release
#
DISCID=9808780c
DTITLE=Odetta - Odetta and the blues
DYEAR=1962
DGENRE=Blues
TTITLE0=Hard, Oh Lord
TTITLE1=Believe I'll Go
TTITLE2=Oh, Papa
TTITLE3=How Long Blues
TTITLE4=Hogan's Alley
TTITLE5=Leavin' This Morning
TTITLE6=Oh, My Baby
TTITLE7=Yonder Comes The Blues
TTITLE8=Make Me A Pallet On the Floor
TTITLE9=Weeping Willow Blues
TTITLE10=Go Down, Sunshine
TTITLE11=Nobody Knows You When You're Down and Out
EXTD=Label: Riverside\nCode: OBCCD-509-2 (RLP-9417]\nCollection:Original Blu
EXTD=es Classics\nAAD YEAR: 1962 ID3G:   0
EXTT0=
EXTT1=
EXTT2=
EXTT3=
EXTT4=
EXTT5=
EXTT6=
EXTT7=
EXTT8=
EXTT9=
EXTT10=
EXTT11=
PLAYORDER=
